<svg xmlns="http://www.w3.org/2000/svg" width="266" height="102" viewBox="0 0 266 102">
  <g fill="none" transform="translate(.32 .135)">
    <path fill="#67706F" d="M90.976,33.4401 L103.226,44.5191 L103.226,56.3751 L92.372,66.2881 L103.761,76.5861 L103.761,89.5091 L91.625,100.4891 L35.139,100.4891 L6.4659389e-13,100.4881 L6.4659389e-13,33.4401 L90.976,33.4401 Z M74.668,75.0321 L35.139,75.0321 L35.139,83.0001 L74.668,83.0001 L74.668,75.0321 Z M74.137,50.3521 L35.139,50.3521 L35.139,57.9281 L74.137,57.9281 L74.137,50.3521 Z"/>
    <polygon fill="#67706F" points="217.012 33.444 217.012 50.347 150.526 50.347 150.526 58.057 217.012 58.057 217.012 74.965 150.526 74.965 150.526 100.49 115.393 100.49 115.393 33.444"/>
    <polygon fill="#67706F" points="264.05 33.305 264.05 100.34 229.03 100.34 229.03 33.305"/>
    <polygon fill="#67706F" points="264.17 0 264.17 16.72 229.03 16.72 229.03 0"/>
    <polygon fill="#D7432B" points=".001 16.72 35.139 16.72 35.139 0 .001 0"/>
    <polygon fill="#408CBF" points="115.388 16.72 150.528 16.72 150.528 0 115.388 0"/>
  </g>
</svg>
