<svg xmlns="http://www.w3.org/2000/svg" width="559" height="102" viewBox="0 0 559 102">
  <g fill="none" fill-rule="evenodd" transform="translate(.32 .135)">
    <path fill="#67706F" d="M90.976,33.4401 L103.226,44.5191 L103.226,56.3751 L92.372,66.2881 L103.761,76.5861 L103.761,89.5091 L91.625,100.4891 L35.139,100.4891 L35.139,100.4881 L1.57740487e-12,100.4881 L1.57740487e-12,33.4401 L90.976,33.4401 Z M217.0124,33.4436 L217.0124,50.3466 L150.5264,50.3466 L150.5264,58.0566 L217.0124,58.0566 L217.0124,74.9646 L150.5264,74.9646 L150.5264,100.4896 L115.3934,100.4896 L115.3934,33.4436 L217.0124,33.4436 Z M264.0505,33.305 L264.0505,100.34 L229.0305,100.34 L229.0305,33.305 L264.0505,33.305 Z M449.0885,73.041 L449.0885,78.708 L455.6465,78.708 L455.6465,83.107 L449.0885,83.107 L449.0885,94.148 L450.3155,95.373 L455.6465,95.373 L455.6465,100.027 L446.8045,100.027 L442.8705,96.093 L442.8705,83.107 L439.7835,83.107 L439.7835,78.708 L442.8705,78.708 L442.8705,73.041 L449.0885,73.041 Z M334.9255,73.041 L334.9255,78.708 L341.4825,78.708 L341.4825,83.107 L334.9255,83.107 L334.9255,94.148 L336.1535,95.373 L341.4825,95.373 L341.4825,100.027 L332.6415,100.027 L328.7075,96.093 L328.7075,83.107 L325.6195,83.107 L325.6195,78.708 L328.7075,78.708 L328.7075,73.041 L334.9255,73.041 Z M557.7105,70.842 L557.7105,100.027 L551.4935,100.027 L551.4935,70.842 L557.7105,70.842 Z M296.3925,70.841 L296.3925,75.368 L291.4425,75.368 L291.4425,95.502 L296.3925,95.502 L296.3925,100.027 L279.9805,100.027 L279.9805,95.502 L284.9285,95.502 L284.9285,75.368 L279.9805,75.368 L279.9805,70.841 L296.3925,70.841 Z M394.8635,78.708 L395.2005,81.882 L398.4165,78.708 L406.1985,78.708 L410.0905,82.599 L410.0905,100.027 L403.8715,100.027 L403.8715,84.672 L402.5615,83.361 L398.8385,83.361 L396.3425,85.858 L396.3425,100.027 L390.1245,100.027 L390.1245,78.708 L394.8635,78.708 Z M306.3315,78.708 L306.6695,81.882 L309.8855,78.708 L317.6685,78.708 L321.5595,82.599 L321.5595,100.027 L315.3415,100.027 L315.3415,84.672 L314.0315,83.361 L310.3085,83.361 L307.8115,85.858 L307.8115,100.027 L301.5945,100.027 L301.5945,78.708 L306.3315,78.708 Z M431.8305,78.708 L435.7665,82.599 L435.7665,100.027 L431.0275,100.027 L430.6895,97.025 L427.6855,100.027 L418.8035,100.027 L415.2925,96.517 L415.2925,90.764 L418.8035,87.253 L429.5455,87.253 L429.5455,83.698 L428.4485,82.599 L423.0325,82.599 L422.3135,83.319 L422.3135,84.968 L415.9265,84.968 L415.9265,82.135 L419.3545,78.708 L431.8305,78.708 Z M504.4145,78.708 L504.7535,81.882 L507.9685,78.708 L515.7515,78.708 L519.6435,82.599 L519.6435,100.027 L513.4255,100.027 L513.4255,84.672 L512.1155,83.361 L508.3925,83.361 L505.8955,85.858 L505.8955,100.027 L499.6785,100.027 L499.6785,78.708 L504.4145,78.708 Z M362.3795,78.667 L366.3135,82.599 L366.3135,90.764 L352.0995,90.764 L352.0995,94.866 L353.3255,96.05 L359.4175,96.05 L360.1355,95.332 L360.1355,93.556 L366.3135,93.556 L366.3135,96.685 L362.9695,100.027 L349.9425,100.027 L346.0505,96.093 L346.0505,82.599 L349.9425,78.667 L362.3795,78.667 Z M541.3835,78.708 L545.3185,82.599 L545.3185,100.027 L540.5805,100.027 L540.2415,97.025 L537.2385,100.027 L528.3565,100.027 L524.8465,96.517 L524.8465,90.764 L528.3565,87.253 L539.1005,87.253 L539.1005,83.698 L537.9995,82.599 L532.5855,82.599 L531.8665,83.319 L531.8665,84.968 L525.4805,84.968 L525.4805,82.135 L528.9065,78.708 L541.3835,78.708 Z M490.0345,78.708 L493.9685,82.599 L493.9685,96.093 L490.0345,100.027 L477.2175,100.027 L473.3255,96.093 L473.3255,82.599 L477.2175,78.708 L490.0345,78.708 Z M376.6315,78.708 L376.9705,81.966 L380.2285,78.708 L385.3885,78.708 L385.3885,83.868 L380.5655,83.868 L378.1125,86.321 L378.1125,100.027 L371.8965,100.027 L371.8965,78.708 L376.6315,78.708 Z M467.3205,78.709 L467.3205,100.026 L461.1025,100.026 L461.1025,78.709 L467.3205,78.709 Z M486.3975,82.644 L480.8565,82.644 L479.5435,83.994 L479.5435,94.697 L480.8565,96.05 L486.3975,96.05 L487.7515,94.697 L487.7515,83.994 L486.3975,82.644 Z M539.1005,90.594 L532.0355,90.594 L531.1065,91.526 L531.1065,95.078 L532.0355,96.008 L537.1135,96.008 L539.1005,93.979 L539.1005,90.594 Z M429.5455,90.594 L422.4845,90.594 L421.5525,91.526 L421.5525,95.078 L422.4845,96.008 L427.5595,96.008 L429.5455,93.979 L429.5455,90.594 Z M359.1615,82.599 L353.2415,82.599 L352.0995,83.741 L352.0995,87.211 L360.3045,87.211 L360.3045,83.741 L359.1615,82.599 Z M74.668,75.0321 L35.139,75.0321 L35.139,83.0001 L74.668,83.0001 L74.668,75.0321 Z M467.3205,71.052 L467.3205,76.17 L461.1025,76.17 L461.1025,71.052 L467.3205,71.052 Z M426.8813,41.2095 L427.2213,44.3835 L430.4373,41.2095 L438.2173,41.2095 L442.1093,45.1015 L442.1093,62.5285 L435.8913,62.5285 L435.8913,47.1735 L434.5813,45.8615 L430.8593,45.8615 L428.3633,48.3585 L428.3633,62.5285 L422.1453,62.5285 L422.1453,41.2095 L426.8813,41.2095 Z M300.2833,33.3415 L304.1743,37.2345 L304.1743,44.2965 L300.9593,47.5535 L304.2183,50.8115 L304.2183,58.6365 L300.3263,62.5285 L281.2913,62.5285 L281.2913,33.3415 L300.2833,33.3415 Z M402.3063,41.2095 L402.3063,56.5645 L403.6193,57.8755 L407.2983,57.8755 L409.8363,55.3375 L409.8363,41.2095 L416.0543,41.2095 L416.0543,62.5285 L411.3173,62.5285 L410.9783,59.3145 L407.7633,62.5285 L399.9803,62.5285 L396.0903,58.5935 L396.0903,41.2095 L402.3063,41.2095 Z M392.1563,33.3415 L392.1563,38.3325 L379.8453,38.3325 L379.8453,45.9045 L391.0563,45.9045 L391.0563,50.8535 L379.8453,50.8535 L379.8453,62.5285 L373.3323,62.5285 L373.3323,33.3415 L392.1563,33.3415 Z M363.5203,41.1675 L367.4543,45.1015 L367.4543,53.2645 L353.2423,53.2645 L353.2423,57.3685 L354.4673,58.5525 L360.5593,58.5525 L361.2783,57.8325 L361.2783,56.0575 L367.4543,56.0575 L367.4543,59.1865 L364.1113,62.5285 L351.0833,62.5285 L347.1913,58.5935 L347.1913,45.1015 L351.0833,41.1675 L363.5203,41.1675 Z M316.4833,41.2095 L316.4833,62.5285 L310.2653,62.5285 L310.2653,41.2095 L316.4833,41.2095 Z M329.0023,33.3415 L329.0023,51.3615 L336.5323,41.2095 L343.4693,41.2095 L337.1673,49.2045 L344.1053,62.5285 L337.2093,62.5285 L332.7683,53.2645 L329.0023,58.0455 L329.0023,62.5285 L322.7863,62.5285 L322.7863,33.3415 L329.0023,33.3415 Z M74.137,50.3521 L35.139,50.3521 L35.139,57.9281 L74.137,57.9281 L74.137,50.3521 Z M296.2223,49.8385 L287.8043,49.8385 L287.8043,57.8755 L296.3913,57.8755 L297.7033,56.5645 L297.7033,51.3185 L296.2223,49.8385 Z M360.3053,45.1015 L354.3833,45.1015 L353.2423,46.2425 L353.2423,49.7115 L361.4463,49.7115 L361.4463,46.2425 L360.3053,45.1015 Z M296.3493,37.9515 L287.8043,37.9515 L287.8043,45.2705 L296.2653,45.2705 L297.6613,43.8335 L297.6613,39.2635 L296.3493,37.9515 Z M316.4833,33.5525 L316.4833,38.6715 L310.2653,38.6715 L310.2653,33.5525 L316.4833,33.5525 Z M264.1695,5.037748e-12 L264.1695,16.72 L229.0305,16.72 L229.0305,5.037748e-12 L264.1695,5.037748e-12 Z"/>
    <polygon fill="#D7432B" points=".001 16.72 35.139 16.72 35.139 0 .001 0"/>
    <polygon fill="#408CBF" points="115.388 16.72 150.528 16.72 150.528 0 115.388 0"/>
  </g>
</svg>
