<?xml version="1.0" encoding="utf-8"?>
<!-- Generator: Adobe Illustrator 16.0.0, SVG Export Plug-In . SVG Version: 6.00 Build 0)  -->
<!DOCTYPE svg PUBLIC "-//W3C//DTD SVG 1.1//EN" "http://www.w3.org/Graphics/SVG/1.1/DTD/svg11.dtd">
<svg version="1.1" xmlns="http://www.w3.org/2000/svg" xmlns:xlink="http://www.w3.org/1999/xlink" x="0px" y="0px"
	 width="111.084px" height="25.567px" viewBox="0 0 111.084 25.567" enable-background="new 0 0 111.084 25.567"
	 xml:space="preserve">
<g id="Layer_2">
</g>
<g id="Layer_1">
	<g>
		
			<rect x="104.642" y="3.041" transform="matrix(0.1687 0.9857 -0.9857 0.1687 93.9302 -98.9809)" fill="#868D8B" width="2.003" height="6.306"/>
		<path fill="#868D8B" d="M34.517,6.885c0.071-0.502,0.577-0.942,1.083-0.942h9.359V3.939H35.6c-1.485,0-2.861,1.198-3.067,2.67
			l-1.877,13.713l2.005,0.002l1.03-7.544h8.346v-2.004h-8.067L34.517,6.885z"/>
		<path fill="#868D8B" d="M62.276,8.181H47.507c-1.485,0-2.861,1.196-3.068,2.667l-1.344,9.476h2.006l1.324-9.197
			c0.07-0.501,0.576-0.941,1.083-0.941h14.769c0.189,0,0.353,0.066,0.456,0.185c0.104,0.12,0.146,0.29,0.12,0.479l-0.917,6.519
			c-0.07,0.501-0.575,0.941-1.082,0.941h-7.371c-0.19,0-0.352-0.065-0.456-0.185c-0.104-0.12-0.147-0.29-0.121-0.479l0.144-1.013
			c0.079-0.565,0.663-1.17,1.227-1.27l7.288-1.278l-0.327-1.927l-7.305,1.232c-1.409,0.245-2.669,1.547-2.869,2.964l-0.143,1.013
			c-0.107,0.771,0.104,1.507,0.593,2.071c0.49,0.563,1.189,0.874,1.968,0.874h7.371c1.485,0,2.861-1.196,3.067-2.668l0.916-6.519
			c0.108-0.771-0.103-1.506-0.592-2.07C63.755,8.491,63.056,8.181,62.276,8.181z"/>
		<path fill="#868D8B" d="M109.915,9.055c-0.49-0.564-1.189-0.874-1.97-0.874h-7.876c-1.484,0-2.86,1.196-3.068,2.667l-0.916,6.518
			c-0.108,0.772,0.103,1.508,0.593,2.072c0.49,0.563,1.189,0.874,1.969,0.874h10.047v-2.004H98.646
			c-0.189,0-0.353-0.065-0.456-0.185c-0.104-0.119-0.146-0.289-0.12-0.479l0.917-6.518c0.068-0.493,0.584-0.942,1.082-0.942h7.876
			c0.19,0,0.352,0.066,0.456,0.185c0.104,0.12,0.147,0.289,0.121,0.477c-0.081,0.575-0.655,1.164-1.228,1.261l-7.933,1.399
			l0.335,1.977l7.934-1.401c1.413-0.237,2.676-1.536,2.875-2.955C110.615,10.355,110.405,9.62,109.915,9.055z"/>
		<path fill="#868D8B" d="M77.389,8.244h-7.307c-1.486,0-2.862,1.196-3.068,2.667l-1.996,14.107l2.004,0.002l0.684-4.644h8.261
			c1.485,0,2.861-1.196,3.068-2.667l0.916-6.52c0.108-0.771-0.103-1.507-0.593-2.071S78.168,8.244,77.389,8.244z M75.966,18.372
			H67.99l1.009-7.182c0.069-0.502,0.576-0.942,1.083-0.942h7.307c0.19,0,0.353,0.065,0.455,0.185c0.104,0.12,0.147,0.29,0.122,0.479
			l-0.917,6.518C76.978,17.931,76.471,18.372,75.966,18.372z"/>
		<path fill="#868D8B" d="M92.444,8.244h-7.308c-1.485,0-2.861,1.196-3.067,2.667l-1.997,14.107l2.005,0.002l0.683-4.644h8.262
			c1.485,0,2.861-1.196,3.067-2.667l0.916-6.52c0.108-0.771-0.102-1.506-0.591-2.072C93.923,8.554,93.224,8.244,92.444,8.244z
			 M91.021,18.372h-7.977l1.009-7.182c0.07-0.502,0.577-0.942,1.083-0.942h7.308c0.189,0,0.352,0.066,0.455,0.185
			c0.104,0.12,0.147,0.29,0.121,0.479l-0.916,6.518C92.033,17.931,91.527,18.372,91.021,18.372z"/>
		<path fill="#868D8B" d="M21.712,0.622H6.225c-1.458,0-2.808,1.174-3.009,2.617L0.834,20.335l3.569-0.003l-0.46,3.283H19.43
			c1.457,0,2.807-1.174,3.01-2.617l2.38-17.094l-3.567,0.002L21.712,0.622z M19.43,21.686H6.151l0.189-1.354h9.981
			c1.458,0,2.808-1.174,3.01-2.617l1.652-11.88h1.629L20.53,20.731C20.458,21.24,19.945,21.686,19.43,21.686z M6.225,2.549
			l13.279,0.002l-0.188,1.354H9.334c-1.458,0-2.808,1.174-3.009,2.617L4.671,18.403H3.044L5.125,3.507
			C5.197,2.997,5.711,2.549,6.225,2.549z M7.417,12.602h9.225v-1.928H7.688l0.545-3.883C8.306,6.28,8.82,5.833,9.334,5.833h9.713
			l-1.625,11.615c-0.071,0.509-0.585,0.955-1.101,0.955H6.609L7.417,12.602z"/>
	</g>
</g>
</svg>
