<svg xmlns="http://www.w3.org/2000/svg" width="120" height="23" viewBox="0 0 120 23">
  <path fill="#67706F" fill-rule="evenodd" d="M16.7105,0.2698 L19.2535,2.8128 L18.8335,5.9148 L16.6955,8.0538 L10.5785,8.0538 L13.6345,11.1408 L15.4605,9.3158 L18.3695,9.3198 L16.9925,19.1518 L13.9655,22.1778 L15.2175,13.2418 L9.9655,18.4798 L4.7165,13.2428 L5.9445,22.1438 L2.9475,19.1478 L0.3125,0.2698 L16.7105,0.2698 Z M99.2859,12.55 L101.6329,16.899 L102.2669,16.899 L104.7749,12.555 L107.1599,12.555 L103.7329,18.492 L100.0909,18.495 L97.7459,14.147 L97.1109,14.147 L94.6019,18.492 L92.2159,18.492 L95.6449,12.555 L99.2859,12.55 Z M94.5237,12.555 L91.0967,18.492 L88.7107,18.492 L92.1387,12.555 L94.5237,12.555 Z M119.339,12.5546 L118.416,14.1516 L109.746,14.1516 L109.412,14.7276 L118.084,14.7276 L117.162,16.3256 L108.49,16.3256 L108.16,16.8946 L116.833,16.8946 L115.911,18.4926 L104.853,18.4926 L108.281,12.5546 L119.339,12.5546 Z M78.3494,12.5546 L77.4274,14.1516 L68.7554,14.1516 L67.1714,16.8946 L75.8444,16.8946 L74.9214,18.4926 L63.8634,18.4926 L67.2924,12.5546 L78.3494,12.5546 Z M81.8573,12.555 L80.7023,14.553 L87.4783,14.553 L88.6323,12.555 L91.0183,12.555 L87.5893,18.492 L85.2043,18.492 L86.5553,16.15 L79.7803,16.15 L78.4273,18.492 L76.0423,18.492 L79.4703,12.555 L81.8573,12.555 Z M48.5889,12.5501 L53.2959,12.5551 L49.8659,18.4921 L47.4809,18.4921 L49.9869,14.1511 L49.3129,14.1511 L43.4609,17.7951 L41.5119,14.1471 L40.8739,14.1471 L38.3669,18.4921 L35.9799,18.4921 L39.4089,12.5551 L43.0539,12.5501 L44.4249,15.0601 L48.5889,12.5501 Z M66.1707,12.555 L62.7427,18.492 L60.3577,18.492 L61.6107,16.322 L55.8697,16.322 L52.3877,18.492 L50.5927,18.492 L51.5757,16.788 L58.6187,12.555 L66.1707,12.555 Z M16.6605,2.8558 L3.2725,2.8558 L4.1175,8.9518 L9.9655,14.8098 L11.8035,12.9728 L4.2945,5.4648 L16.2935,5.4648 L16.6605,2.8558 Z M62.8627,14.152 L59.3507,14.152 L58.4317,14.725 L62.5317,14.725 L62.8627,14.152 Z M66.2795,2.8543 L61.1685,11.7073 L43.9755,11.7073 L49.0865,2.8543 L66.2795,2.8543 Z M83.8488,2.8543 L82.4748,5.2353 L69.5458,5.2353 L67.1848,9.3253 L80.1128,9.3253 L78.7388,11.7073 L62.2538,11.7073 L67.3638,2.8543 L83.8488,2.8543 Z M48.0019,2.8543 L44.7579,8.4723 L41.0869,8.4783 L42.8399,11.7073 L39.2349,11.7073 L37.5019,8.4783 L31.1339,8.4783 L29.2689,11.7073 L25.7129,11.7073 L30.8229,2.8543 L48.0019,2.8543 Z M88.4904,2.8543 L86.7704,5.8343 L93.3334,5.8343 L98.2914,2.8543 L103.2024,2.8543 L96.2964,7.1543 L98.7704,11.7073 L95.1654,11.7073 L93.2944,8.2193 L93.3024,8.2153 L85.3964,8.2153 L83.3804,11.7073 L79.8234,11.7073 L84.9344,2.8543 L88.4904,2.8543 Z M61.3475,5.2353 L51.2825,5.2353 L48.9215,9.3253 L58.9875,9.3253 L61.3475,5.2353 Z M43.0699,5.2353 L33.0049,5.2353 L32.5079,6.0963 L42.5729,6.0963 L43.0699,5.2353 Z" transform="translate(0 .465)"/>
</svg>
