<svg version="1.2" xmlns="http://www.w3.org/2000/svg" viewBox="0 0 511 107" width="125" height="26">
	<title>sup2-svg</title>
	<defs>
		<clipPath clipPathUnits="userSpaceOnUse" id="cp1">
			<path d="m0 0h510.24v106.6h-510.24z"/>
		</clipPath>
	</defs>
	<style>
		.s0 { fill: #67706f } 
	</style>
	<g id="Clip-Path" clip-path="url(#cp1)">
		<g id="Layer">
			<path id="Layer" class="s0" d="m120.4 58.1c0 8.2-5.5 15.8-16.9 15.8-11.4 0-13.2-6.5-13.2-11.6v-37.9h-16.8c0 0 0 34.8 0 39.1 0.1 17.5 6.9 25.3 24.9 25.3 8 0 17.1-2.2 23-11.4h0.6l1.4 9.8h13.9v-62.8h-16.9z"/>
			<path id="Layer" fill-rule="evenodd" class="s0" d="m190.5 23.5c6.5 0 15.9 1.5 22.4 11.4 6.6 9.8 6.9 35.6-1.5 44.8-5.1 5.4-9.9 9.1-21.5 9.1-10.8 0-16.8-3.2-22.3-10.3l-0.5 0.3v27.8h-17.1v-82.2h13.8l1.1 9.8 0.6 0.1c6.4-10.1 18.6-10.8 25-10.8m7.3 20.8c-4.3-7.6-21.2-8.8-27.5-0.5-4.7 6.2-4 20 1.4 26.2 5.2 6 19 6.2 24.2 0.7 5.7-6.2 5.6-19.7 1.9-26.4z"/>
			<path id="Layer" fill-rule="evenodd" class="s0" d="m292.2 59.2h-52.1c0.4 14 11.1 15.8 18.4 15.8 6.4 0 14.2-0.8 16.8-9.7h16.5c-1.1 5.7-4.3 11.3-8 14.8-7.4 6.9-17.2 8.6-26.4 8.6-9.1 0-21.2-2.2-28.4-13.8-7.2-11.3-5.5-31.2 1.2-40.3 5.7-7.9 14.4-11.4 28.6-11.4 12.2 0 22.1 4.5 26.7 11.1 4.8 6.8 6.7 13.3 6.7 24.9zm-17.5-11c-1.4-8.6-6.6-11.6-16.9-11.6-11.2 0-15.6 4.4-17.1 11.6z"/>
			<path id="Layer" class="s0" d="m318.5 36.1h-0.5l-1.6-11.7h-13.9v62.8h16.8l-0.1-30.2c0-5.6 2.1-17.2 16.4-17.3 1.8-0.1 6.8 0 6.8 0v-16c0 0-18.3-4.4-23.9 12.4z"/>
			<path id="Layer" class="s0" d="m500.6 39.7v-16c0 0-18.4-4.4-24 12.4h-0.5l-1.5-11.7h-13.9v62.8h16.7v-30.2c0-5.6 2.1-17.3 16.3-17.3z"/>
			<path id="Layer" class="s0" d="m367.1 24.4h-16.9v62.8h16.9z"/>
			<path id="Layer" class="s0" d="m367.1 0h-16.9v15.9h16.9z"/>
			<path id="Layer" class="s0" d="m510.2 71.3h-16.8v15.9h16.8z"/>
			<path id="Layer" fill-rule="evenodd" class="s0" d="m413.9 23.3q0 0 0 0-0.1 0-0.1 0m0.1 0c19 0 28.1 8.3 32 15.2 4 6.9 6.7 25.3-1.8 37.2-4 5.4-11.6 13.1-30.3 13.1-18.7 0-26.2-7.7-30.2-13.1-8.5-11.9-5.8-30.3-1.8-37.2 3.9-6.9 13-15.2 32.1-15.2zm16.7 21c-2.2-3-6.4-7-16.7-7-10.4 0-14.6 4-16.8 7-3.5 4.9-4.5 18.4 1.2 24.6 4.6 5 12.6 5.4 15.6 5.4 2.9 0 10.9-0.4 15.5-5.4 5.7-6.2 4.7-19.7 1.2-24.6z"/>
			<path id="Layer" class="s0" d="m59.1 56.5c-2.3-1.7-6.5-3.5-18.8-7-7-2-13.8-4-15.5-4.5-2.8-0.8-5.1-2-4.7-4.4 0.4-2.6 2.6-4 5.7-4.7 2.9-0.8 9.4-1.4 14.8 0.3 5.4 1.7 7 4.3 7.6 6.4l16.3 0.1c-0.2-4.3-2.5-9.1-5.2-12.1-2.7-3-7.4-6.3-16.9-7.4-4.4-0.5-22.1-2.1-32 4.3-8.9 5.9-9.1 17.4-5.8 22 3.5 5.1 10.7 7.6 13.2 8.4 1.2 0.4 6.5 1.8 12.2 3.4 12.6 3.4 14.2 4.1 15.3 4.9 2.2 1.4 3.2 4.9-0.8 7.2-4.1 2.3-13.8 2.1-18.4 0.9-4.1-1.1-8-3-9.1-7.5h-17c0.3 6.3 5.7 16.9 21.8 20.8 6.6 1.6 19.9 1.6 26.4-0.3 6.6-1.9 11.5-4.2 14.5-10 3-5.9 2.9-15.9-3.6-20.8"/>
		</g>
	</g>
</svg>